<svg width="16" height="16" viewBox="0 0 16 16" fill="none" xmlns="http://www.w3.org/2000/svg">
<g clip-path="url(#clip0_919_6)">
<circle cx="8" cy="8" r="7.5" stroke="#F84B5A"/>
<path d="M7.2125 13V6.0829H8.775V13H7.2125ZM8 4.943C7.70833 4.943 7.46667 4.84801 7.275 4.65803C7.09167 4.46805 7 4.23921 7 3.9715C7 3.69516 7.09167 3.46632 7.275 3.28497C7.46667 3.09499 7.70833 3 8 3C8.29167 3 8.52917 3.09067 8.7125 3.27202C8.90417 3.44473 9 3.66494 9 3.93264C9 4.21762 8.90833 4.45941 8.725 4.65803C8.54167 4.84801 8.3 4.943 8 4.943Z" fill="#F84B5A"/>
</g>
<defs>
<clipPath id="clip0_919_6">
<rect width="16" height="16" fill="white"/>
</clipPath>
</defs>
</svg>
